<?xml version="1.0" standalone="no"?>
<!DOCTYPE svg PUBLIC "-//W3C//DTD SVG 20010904//EN"
 "http://www.w3.org/TR/2001/REC-SVG-20010904/DTD/svg10.dtd">
<svg version="1.0" xmlns="http://www.w3.org/2000/svg"
 width="512.000000pt" height="512.000000pt" viewBox="0 0 512.000000 512.000000"
 preserveAspectRatio="xMidYMid meet">
<metadata>
Created by potrace 1.11, written by Peter Selinger 2001-2013
</metadata>
<g transform="translate(0.000000,512.000000) scale(0.100000,-0.100000)"
fill="#000000" stroke="none">
<path d="M0 2560 l0 -2560 2560 0 2560 0 0 2560 0 2560 -2560 0 -2560 0 0
-2560z m2544 2280 c301 -16 508 -55 716 -137 260 -102 441 -235 590 -435 279
-372 328 -1006 114 -1475 -57 -125 -139 -241 -253 -354 -221 -222 -509 -362
-881 -430 -116 -21 -161 -23 -650 -28 l-525 -6 -3 -857 -2 -858 -305 0 -305 0
0 2295 0 2295 658 0 c361 0 742 -5 846 -10z"/>
<path d="M1658 4354 c-5 -4 -8 -430 -8 -946 l0 -938 433 0 c238 0 469 5 515
10 408 52 703 262 822 589 80 219 78 516 -5 737 -85 227 -267 394 -519 479
-173 58 -270 67 -771 72 -253 3 -463 2 -467 -3z"/>
</g>
</svg>
